HIERARCHY
ROOT joint_0
{
	OFFSET 0.000000 0.000000 0.000000
	CHANNELS 6 Xposition Yposition Zposition Zrotation Yrotation Xrotation 
	JOINT joint_1
	{
		OFFSET 14.113007 -2.961990 123.953979
		CHANNELS 3 Zrotation Yrotation Xrotation
		JOINT joint_2
		{
			OFFSET 0.764000 -2.434006 113.871948
			CHANNELS 3 Zrotation Yrotation Xrotation
			JOINT joint_3
			{
				OFFSET 0.186996 -2.169998 113.753052
				CHANNELS 3 Zrotation Yrotation Xrotation
				JOINT joint_4
				{
					OFFSET 16.096001 -2.720001 160.853027
					CHANNELS 3 Zrotation Yrotation Xrotation
					JOINT joint_5
					{
						OFFSET 34.392006 -0.188995 92.567017
						CHANNELS 3 Zrotation Yrotation Xrotation
						End Site
						{
							OFFSET 0.000000 0.000000 0.000000
						}
					}
				}
				JOINT joint_6
				{
					OFFSET 9.183998 -36.684006 89.597046
					CHANNELS 3 Zrotation Yrotation Xrotation
					JOINT joint_7
					{
						OFFSET 0.486000 -164.365997 -28.984009
						CHANNELS 3 Zrotation Yrotation Xrotation
						JOINT joint_8
						{
							OFFSET 38.899002 -34.967010 -291.651978
							CHANNELS 3 Zrotation Yrotation Xrotation
							JOINT joint_9
							{
								OFFSET 41.714005 -45.890991 -258.857056
								CHANNELS 3 Zrotation Yrotation Xrotation
								End Site
								{
									OFFSET 0.000000 0.000000 0.000000
								}
							}
						}
					}
				}
				JOINT joint_10
				{
					OFFSET 8.867004 33.650002 90.817993
					CHANNELS 3 Zrotation Yrotation Xrotation
					JOINT joint_11
					{
						OFFSET 0.018997 164.299999 -29.368042
						CHANNELS 3 Zrotation Yrotation Xrotation
						JOINT joint_12
						{
							OFFSET 29.440994 30.887997 -293.216919
							CHANNELS 3 Zrotation Yrotation Xrotation
							JOINT joint_13
							{
								OFFSET 46.174011 54.490005 -256.422058
								CHANNELS 3 Zrotation Yrotation Xrotation
								End Site
								{
									OFFSET 0.000000 0.000000 0.000000
								}
							}
						}
					}
				}
			}
		}
	}
	JOINT joint_14
	{
		OFFSET -2.264000 -89.466995 -116.150024
		CHANNELS 3 Zrotation Yrotation Xrotation
		JOINT joint_15
		{
			OFFSET -16.400993 -17.452988 -493.781982
			CHANNELS 3 Zrotation Yrotation Xrotation
			JOINT joint_16
			{
				OFFSET -50.497004 -13.404022 -424.754013
				CHANNELS 3 Zrotation Yrotation Xrotation
				JOINT joint_17
				{
					OFFSET 198.546007 -19.341003 -89.309000
					CHANNELS 3 Zrotation Yrotation Xrotation
					End Site
					{
						OFFSET 0.000000 0.000000 0.000000
					}
				}
			}
		}
	}
	JOINT joint_18
	{
		OFFSET -0.867996 96.016006 -110.817993
		CHANNELS 3 Zrotation Yrotation Xrotation
		JOINT joint_19
		{
			OFFSET -10.130997 24.658998 -493.645020
			CHANNELS 3 Zrotation Yrotation Xrotation
			JOINT joint_20
			{
				OFFSET -48.871004 19.434999 -424.714005
				CHANNELS 3 Zrotation Yrotation Xrotation
				JOINT joint_21
				{
					OFFSET 195.579996 24.926001 -94.327003
					CHANNELS 3 Zrotation Yrotation Xrotation
					End Site
					{
						OFFSET 0.000000 0.000000 0.000000
					}
				}
			}
		}
	}
}
MOTION
Frames: 11
Frame Time: 0.016667
-2075.091309 860.584900 1109.145020 6.953381 7.023058 3.748865 -1.107505 2.106147 8.141469 -1.161839 -0.294071 -1.599391 -1.112997 0.300356 1.378810 -0.712882 -2.290581 1.820523 0.000000 0.000000 0.000000 0.880764 -9.863050 -2.882771 2.275990 -4.360844 -11.553442 -163.922241 -77.377986 -172.241037 0.000000 0.000000 0.000000 -2.202502 -10.975743 5.207762 5.315039 -3.594199 18.801688 -4.333358 -84.219969 -17.530299 0.000000 0.000000 0.000000 6.269182 -30.957965 -13.464578 8.844252 13.608641 -0.350248 10.176006 -2.624230 3.870130 0.000000 0.000000 0.000000 -4.938587 2.048633 3.629087 -3.792890 23.859165 -5.086171 -5.948121 -0.281043 -2.255365 0.000000 0.000000 0.000000 
-2059.321533 854.829956 1101.817017 8.225170 5.905087 3.784331 -1.305186 2.404473 8.444919 -1.260870 -0.319338 -1.660723 -1.200800 0.352802 1.440984 -0.786505 -1.843783 2.001290 0.000000 0.000000 0.000000 1.042227 -10.102605 -3.116351 2.227826 -4.540392 -11.887316 -164.171174 -78.257244 -173.190238 0.000000 0.000000 0.000000 -2.697970 -12.049122 5.153960 5.217194 -4.535501 18.838654 -4.512685 -82.127901 -18.370749 0.000000 0.000000 0.000000 5.672402 -30.967582 -13.237858 7.936240 17.214166 0.182878 10.025290 -2.146638 3.857622 0.000000 0.000000 0.000000 -5.475441 1.514008 4.547862 -4.040045 28.180138 -5.955523 -6.448949 0.561223 -2.485360 0.000000 0.000000 0.000000 
-2045.533813 848.549255 1095.102051 8.985723 4.846389 3.387803 -1.443872 3.094178 8.839045 -1.296217 -0.372548 -1.631362 -1.223829 0.459710 1.459408 -0.806416 -1.790120 2.051871 0.000000 0.000000 0.000000 1.068143 -10.551891 -2.847128 2.282891 -4.821500 -12.491176 -164.193136 -78.719611 -174.237288 0.000000 0.000000 0.000000 -3.153785 -13.043230 5.487043 5.237625 -5.252362 18.646665 -4.572363 -80.824572 -19.156380 0.000000 0.000000 0.000000 5.222318 -31.206630 -12.752507 7.160569 20.986911 1.186185 10.274630 -2.379929 3.925143 0.000000 0.000000 0.000000 -6.045316 0.736606 5.644770 -4.308164 32.675891 -6.453148 -6.875858 2.640731 -2.832425 0.000000 0.000000 0.000000 
-2032.888550 842.085876 1088.895020 9.494822 3.787486 2.748339 -1.572518 4.049652 9.312708 -1.309741 -0.477509 -1.573313 -1.224889 0.586629 1.456080 -0.799145 -1.944361 2.037923 0.000000 0.000000 0.000000 1.018935 -11.068948 -2.335272 2.359124 -5.132771 -13.196276 -164.111503 -79.017838 -175.221953 0.000000 0.000000 0.000000 -3.566365 -13.932837 6.029440 5.323155 -5.790303 18.345383 -4.549756 -80.002284 -19.912885 0.000000 0.000000 0.000000 4.754006 -31.513121 -12.089727 6.310129 25.186487 2.442916 10.717916 -2.773082 4.044047 0.000000 0.000000 0.000000 -6.663448 -0.166501 6.845139 -4.620000 37.164833 -6.807656 -7.318153 5.650751 -3.310853 0.000000 0.000000 0.000000 
-2020.407227 836.568787 1084.573975 9.866408 2.882954 2.262723 -1.722090 4.952017 9.702888 -1.336169 -0.620914 -1.558221 -1.234509 0.706465 1.475301 -0.803099 -2.092491 2.048669 0.000000 0.000000 0.000000 1.038729 -11.312196 -1.926148 2.503194 -5.280023 -13.663534 -163.984762 -79.245393 -176.111611 0.000000 0.000000 0.000000 -3.803239 -14.452545 6.446885 5.368824 -6.064857 17.994977 -4.546012 -79.478570 -20.340316 0.000000 0.000000 0.000000 4.434834 -31.544097 -11.567500 5.571659 28.567604 3.377313 11.084141 -2.945351 4.150775 0.000000 0.000000 0.000000 -7.251159 -1.179142 7.784049 -4.932477 41.255688 -7.296869 -7.859656 8.122689 -3.774346 0.000000 0.000000 0.000000 
-2007.511719 832.454407 1083.026978 9.947560 2.268706 2.096122 -1.890070 5.593596 9.952050 -1.347003 -0.762328 -1.648513 -1.211987 0.844815 1.554427 -0.840466 -2.168180 2.134281 0.000000 0.000000 0.000000 1.266580 -11.044035 -1.794022 2.757247 -5.121260 -13.692762 -163.841811 -79.300006 -176.929426 0.000000 0.000000 0.000000 -3.734486 -14.374570 6.621266 5.311736 -5.948811 17.543036 -4.619476 -79.330505 -20.216475 0.000000 0.000000 0.000000 4.479255 -31.303641 -11.269751 5.092676 30.776116 3.788349 11.284726 -3.101566 4.199200 0.000000 0.000000 0.000000 -7.697837 -2.370150 8.294861 -5.144243 45.084279 -8.117120 -8.570248 9.155846 -4.090675 0.000000 0.000000 0.000000 
-1994.780029 829.286316 1083.365967 9.728782 1.873871 2.072921 -2.052381 6.071392 10.128626 -1.320985 -0.888424 -1.797566 -1.137763 0.993526 1.657210 -0.889162 -2.235141 2.243187 0.000000 0.000000 0.000000 1.570261 -10.510018 -1.754305 3.052189 -4.806366 -13.478883 -163.685860 -79.269690 -177.608623 0.000000 0.000000 0.000000 -3.467690 -13.926468 6.664716 5.202566 -5.589141 17.042288 -4.727119 -79.492258 -19.767331 0.000000 0.000000 0.000000 4.781833 -30.971346 -11.061038 4.796369 32.353840 3.978407 11.415691 -3.381266 4.212363 0.000000 0.000000 0.000000 -7.982863 -3.748463 8.606853 -5.240251 48.728228 -9.078716 -9.397955 9.257665 -4.287985 0.000000 0.000000 0.000000 
-1982.966797 826.823547 1084.305054 9.410633 1.608794 2.064016 -2.175557 6.405833 10.241702 -1.270440 -0.969264 -1.905055 -1.043726 1.086101 1.727551 -0.918174 -2.273572 2.305023 0.000000 0.000000 0.000000 1.700638 -10.077015 -1.620181 3.270311 -4.576518 -13.297168 -163.538037 -79.504278 -177.997760 0.000000 0.000000 0.000000 -3.213831 -13.513879 6.577872 5.111123 -5.312622 16.714358 -4.828977 -79.592555 -19.345885 0.000000 0.000000 0.000000 5.108108 -30.631941 -10.912589 4.576847 33.523128 4.205152 11.497667 -3.589175 4.215326 0.000000 0.000000 0.000000 -8.119311 -5.297717 8.938399 -5.252273 51.900506 -9.862894 -10.127927 8.672995 -4.353339 0.000000 0.000000 0.000000 
-1972.526123 825.042419 1085.437988 9.098772 1.468843 2.037786 -2.236096 6.521768 10.270774 -1.205991 -0.962386 -1.919758 -0.957867 1.071735 1.733013 -0.916906 -2.252923 2.293153 0.000000 0.000000 0.000000 1.465059 -9.825073 -1.258381 3.356143 -4.505409 -13.290276 -163.404519 -80.182339 -177.960571 0.000000 0.000000 0.000000 -3.043600 -13.257652 6.301215 5.054346 -5.256135 16.668570 -4.936471 -79.494717 -19.083780 0.000000 0.000000 0.000000 5.374066 -30.354218 -10.891357 4.396564 34.375733 4.616860 11.556571 -3.696925 4.220350 0.000000 0.000000 0.000000 -8.118219 -7.122268 9.377534 -5.193932 54.612120 -10.345495 -10.603822 7.090574 -4.214282 0.000000 0.000000 0.000000 
-1963.003906 823.967529 1087.171021 8.673213 1.467772 2.018913 -2.230587 6.472205 10.252493 -1.119195 -0.900267 -1.898007 -0.865193 1.001777 1.705818 -0.896328 -2.204521 2.234121 0.000000 0.000000 0.000000 1.054511 -9.663084 -0.814054 3.386621 -4.517262 -13.317614 -163.267354 -81.121056 -177.661718 0.000000 0.000000 0.000000 -2.885863 -13.036194 5.899794 5.016096 -5.271814 16.797898 -5.034206 -79.348232 -18.843081 0.000000 0.000000 0.000000 5.681222 -30.091645 -10.930961 4.302037 34.851529 5.072110 11.574207 -3.785636 4.214496 0.000000 0.000000 0.000000 -7.978586 -9.162254 9.839737 -5.070810 56.886871 -10.667715 -10.956329 4.822124 -3.984350 0.000000 0.000000 0.000000 
-1953.795410 823.429871 1089.427979 8.010174 1.542591 1.974705 -2.158482 6.463153 10.249157 -0.993547 -0.857809 -1.877107 -0.735718 0.956016 1.680236 -0.864487 -2.192792 2.153299 0.000000 0.000000 0.000000 0.780295 -9.686089 -0.532583 3.451899 -4.626615 -13.205766 -163.104137 -82.105235 -177.410789 0.000000 0.000000 0.000000 -2.753235 -12.869438 5.587784 5.023675 -5.254896 16.982997 -5.043524 -79.238039 -18.552426 0.000000 0.000000 0.000000 6.062455 -29.747277 -10.822385 4.310160 34.917986 5.376182 11.506474 -3.793824 4.187766 0.000000 0.000000 0.000000 -7.716694 -11.162269 10.263237 -4.897582 58.485378 -10.911006 -11.333980 2.939532 -3.916783 0.000000 0.000000 0.000000 
